<svg width="916" height="432" viewBox="0 0 916 432" fill="none" xmlns="http://www.w3.org/2000/svg">
<path d="M856.887 197.943C843.275 197.943 831.533 194.939 821.661 188.93C811.85 182.859 804.278 174.398 798.943 163.545C793.67 152.63 791.034 139.938 791.034 125.467C791.034 110.997 793.67 98.2429 798.943 87.206C804.278 76.1077 811.697 67.4621 821.201 61.2692C830.767 55.0149 841.926 51.8878 854.68 51.8878C862.038 51.8878 869.304 53.1141 876.478 55.5667C883.652 58.0194 890.182 62.005 896.068 67.5234C901.955 72.9806 906.645 80.2159 910.14 89.2294C913.635 98.2429 915.383 109.341 915.383 122.524V131.722H806.485V112.959H893.309C893.309 104.988 891.715 97.875 888.527 91.6207C885.399 85.3665 880.923 80.4305 875.098 76.8129C869.335 73.1952 862.528 71.3864 854.68 71.3864C846.034 71.3864 838.554 73.5324 832.238 77.8246C825.984 82.0554 821.171 87.5739 817.798 94.38C814.426 101.186 812.74 108.483 812.74 116.27V128.778C812.74 139.447 814.579 148.492 818.258 155.911C821.998 163.269 827.18 168.879 833.802 172.742C840.424 176.544 848.119 178.445 856.887 178.445C862.59 178.445 867.74 177.647 872.339 176.053C876.999 174.398 881.015 171.945 884.388 168.695C887.76 165.384 890.366 161.276 892.205 156.371L913.176 162.257C910.968 169.37 907.259 175.624 902.047 181.02C896.835 186.354 890.397 190.524 882.732 193.528C875.068 196.472 866.453 197.943 856.887 197.943Z" fill="black"/>
<path d="M786.39 6.63635V195H764.684V6.63635H786.39Z" fill="black"/>
<path d="M635.254 195V6.63635H656.96V76.169H658.799C660.393 73.7164 662.601 70.5892 665.421 66.7876C668.303 62.9247 672.411 59.491 677.746 56.4865C683.142 53.4207 690.438 51.8878 699.636 51.8878C711.531 51.8878 722.016 54.8616 731.091 60.8093C740.166 66.757 747.248 75.188 752.337 86.1023C757.426 97.0166 759.971 109.893 759.971 124.732C759.971 139.693 757.426 152.661 752.337 163.637C747.248 174.551 740.197 183.013 731.183 189.022C722.17 194.969 711.776 197.943 700.004 197.943C690.929 197.943 683.663 196.441 678.206 193.436C672.749 190.371 668.548 186.906 665.605 183.043C662.662 179.119 660.393 175.869 658.799 173.294H656.224V195H635.254ZM656.592 124.364C656.592 135.033 658.155 144.445 661.283 152.6C664.41 160.694 668.978 167.04 674.987 171.638C680.996 176.176 688.354 178.445 697.061 178.445C706.135 178.445 713.708 176.053 719.778 171.271C725.91 166.427 730.509 159.927 733.574 151.772C736.701 143.556 738.265 134.419 738.265 124.364C738.265 114.43 736.732 105.478 733.666 97.5071C730.662 89.4747 726.094 83.1284 719.962 78.4684C713.892 73.747 706.258 71.3864 697.061 71.3864C688.231 71.3864 680.812 73.6244 674.803 78.1005C668.794 82.5153 664.256 88.7082 661.191 96.6793C658.125 104.589 656.592 113.817 656.592 124.364Z" fill="black"/>
<path d="M599.339 195V53.7273H621.045V195H599.339ZM610.376 30.1818C606.145 30.1818 602.496 28.7409 599.431 25.859C596.426 22.9772 594.924 19.5128 594.924 15.4659C594.924 11.419 596.426 7.95466 599.431 5.07279C602.496 2.19093 606.145 0.75 610.376 0.75C614.606 0.75 618.224 2.19093 621.229 5.07279C624.294 7.95466 625.827 11.419 625.827 15.4659C625.827 19.5128 624.294 22.9772 621.229 25.859C618.224 28.7409 614.606 30.1818 610.376 30.1818Z" fill="black"/>
<path d="M527.025 250.92C516.54 250.92 507.526 249.571 499.984 246.874C492.442 244.237 486.157 240.742 481.129 236.388C476.163 232.096 472.208 227.498 469.265 222.592L486.556 210.452C488.518 213.027 491.001 215.97 494.006 219.281C497.01 222.654 501.118 225.566 506.33 228.019C511.604 230.533 518.502 231.79 527.025 231.79C538.429 231.79 547.841 229.031 555.261 223.512C562.68 217.994 566.39 209.348 566.39 197.575V168.879H564.55C562.956 171.455 560.687 174.643 557.744 178.445C554.862 182.185 550.693 185.527 545.236 188.47C539.84 191.352 532.543 192.793 523.346 192.793C511.941 192.793 501.701 190.095 492.626 184.699C483.613 179.303 476.469 171.455 471.196 161.153C465.984 150.852 463.378 138.344 463.378 123.628C463.378 109.157 465.923 96.5567 471.012 85.8263C476.101 75.0347 483.183 66.6957 492.258 60.8093C501.333 54.8616 511.818 51.8878 523.713 51.8878C532.911 51.8878 540.208 53.4207 545.603 56.4865C551.061 59.491 555.23 62.9247 558.112 66.7876C561.055 70.5892 563.324 73.7164 564.918 76.169H567.125V53.7273H588.096V199.047C588.096 211.188 585.336 221.059 579.818 228.663C574.361 236.327 567.003 241.938 557.744 245.494C548.547 249.112 538.307 250.92 527.025 250.92ZM526.289 173.294C534.996 173.294 542.354 171.301 548.363 167.316C554.372 163.33 558.94 157.597 562.067 150.116C565.194 142.636 566.758 133.684 566.758 123.26C566.758 113.081 565.225 104.099 562.159 96.3114C559.093 88.5243 554.556 82.4233 548.547 78.0085C542.538 73.5937 535.118 71.3864 526.289 71.3864C517.091 71.3864 509.427 73.7164 503.295 78.3764C497.225 83.0365 492.657 89.2907 489.591 97.1392C486.587 104.988 485.084 113.695 485.084 123.26C485.084 133.071 486.617 141.747 489.683 149.289C492.81 156.769 497.409 162.656 503.479 166.948C509.611 171.179 517.214 173.294 526.289 173.294Z" fill="black"/>
<path d="M368.692 110.016V195H346.986V53.7273H367.956V75.8011H369.795C373.106 68.6271 378.134 62.8634 384.879 58.5099C391.624 54.0952 400.331 51.8878 411 51.8878C420.565 51.8878 428.935 53.8499 436.109 57.7741C443.283 61.6371 448.863 67.5234 452.848 75.4332C456.834 83.2817 458.827 93.215 458.827 105.233V195H437.121V106.705C437.121 95.6063 434.239 86.9607 428.475 80.7678C422.711 74.5135 414.801 71.3864 404.746 71.3864C397.817 71.3864 391.624 72.8886 386.167 75.8931C380.771 78.8976 376.509 83.2817 373.382 89.0454C370.255 94.8092 368.692 101.799 368.692 110.016Z" fill="black"/>
<path d="M271.108 198.311C262.155 198.311 254.031 196.625 246.734 193.252C239.438 189.819 233.643 184.883 229.351 178.445C225.059 171.945 222.913 164.097 222.913 154.899C222.913 146.805 224.507 140.245 227.696 135.217C230.884 130.127 235.146 126.142 240.48 123.26C245.815 120.378 251.701 118.232 258.139 116.822C264.639 115.35 271.169 114.185 277.73 113.327C286.314 112.223 293.273 111.395 298.608 110.843C304.004 110.23 307.928 109.219 310.381 107.808C312.895 106.398 314.152 103.945 314.152 100.45V99.7145C314.152 90.6397 311.668 83.5883 306.702 78.5604C301.796 73.5324 294.346 71.0185 284.352 71.0185C273.989 71.0185 265.865 73.2872 259.979 77.8246C254.092 82.362 249.953 87.206 247.562 92.3565L226.96 84.9986C230.639 76.4143 235.544 69.7308 241.676 64.9482C247.869 60.1042 254.614 56.7318 261.91 54.831C269.268 52.8688 276.503 51.8878 283.616 51.8878C288.154 51.8878 293.365 52.4396 299.252 53.5433C305.199 54.5857 310.933 56.7624 316.451 60.0735C322.031 63.3846 326.66 68.3819 330.339 75.0653C334.018 81.7488 335.858 90.701 335.858 101.922V195H314.152V175.869H313.048C311.576 178.935 309.124 182.216 305.69 185.711C302.256 189.206 297.688 192.179 291.986 194.632C286.283 197.085 279.324 198.311 271.108 198.311ZM274.419 178.812C283.003 178.812 290.238 177.126 296.125 173.754C302.072 170.382 306.548 166.028 309.553 160.694C312.619 155.359 314.152 149.749 314.152 143.862V123.996C313.232 125.099 311.208 126.111 308.081 127.031C305.015 127.889 301.459 128.656 297.412 129.33C293.427 129.943 289.533 130.495 285.732 130.986C281.991 131.415 278.956 131.783 276.626 132.089C270.985 132.825 265.712 134.021 260.806 135.676C255.962 137.271 252.038 139.693 249.034 142.942C246.091 146.131 244.619 150.484 244.619 156.003C244.619 163.545 247.409 169.247 252.989 173.11C258.63 176.912 265.773 178.812 274.419 178.812Z" fill="black"/>
<path d="M225.374 53.7273V72.1221H152.163V53.7273H225.374ZM173.501 19.8807H195.207V154.531C195.207 160.663 196.096 165.262 197.874 168.327C199.713 171.332 202.043 173.355 204.864 174.398C207.746 175.379 210.781 175.869 213.969 175.869C216.361 175.869 218.323 175.747 219.856 175.501C221.389 175.195 222.615 174.95 223.535 174.766L227.95 194.264C226.478 194.816 224.424 195.368 221.787 195.92C219.151 196.533 215.809 196.839 211.762 196.839C205.63 196.839 199.621 195.521 193.735 192.885C187.91 190.248 183.066 186.232 179.203 180.836C175.401 175.44 173.501 168.634 173.501 160.418V19.8807Z" fill="black"/>
<path d="M62.6264 110.016V195H40.9204V53.7273H61.8906V75.8011H63.7301C67.0412 68.6271 72.0691 62.8634 78.8139 58.5099C85.5587 54.0952 94.2656 51.8878 104.935 51.8878C114.5 51.8878 122.87 53.8499 130.044 57.7741C137.218 61.6371 142.797 67.5234 146.783 75.4332C150.769 83.2817 152.761 93.215 152.761 105.233V195H131.055V106.705C131.055 95.6063 128.174 86.9607 122.41 80.7678C116.646 74.5135 108.736 71.3864 98.6804 71.3864C91.7516 71.3864 85.5587 72.8886 80.1015 75.8931C74.7057 78.8976 70.4442 83.2817 67.3171 89.0454C64.19 94.8092 62.6264 101.799 62.6264 110.016Z" fill="black"/>
<path d="M26.6193 6.63635V195H3.80967V6.63635H26.6193Z" fill="black"/>
<path d="M584.407 429C584.447 426.06 584.48 423.117 584.507 420.17C584.527 417.23 584.54 414.287 584.546 411.34C584.54 408.4 584.53 405.457 584.517 402.51C584.49 399.57 584.46 396.627 584.426 393.68C584.373 390.74 584.316 387.797 584.257 384.85C584.176 381.91 584.09 378.967 583.996 376.02C583.89 373.08 583.773 370.137 583.647 367.19C583.507 364.25 583.356 361.307 583.197 358.36C583.017 355.42 582.827 352.477 582.626 349.53C582.407 346.59 582.173 343.647 581.926 340.7C581.66 337.76 581.383 334.817 581.097 331.87C580.783 328.93 580.453 325.987 580.106 323.04C579.74 320.1 579.36 317.157 578.967 314.21C578.547 311.27 578.11 308.327 577.657 305.38C577.17 302.44 576.67 299.497 576.157 296.55C575.61 293.61 575.047 290.667 574.467 287.72C576.24 287.72 578.02 287.72 579.806 287.72C581.6 287.72 583.4 287.72 585.207 287.72C587.027 287.72 588.846 287.72 590.666 287.72C592.507 287.72 594.346 287.72 596.186 287.72C596.533 289.56 596.873 291.4 597.207 293.24C597.533 295.08 597.853 296.92 598.166 298.76C598.473 300.6 598.773 302.44 599.066 304.28C599.347 306.12 599.623 307.96 599.897 309.8C600.537 309.8 601.176 309.8 601.816 309.8C602.316 307.92 602.947 306.14 603.697 304.46C604.457 302.79 605.346 301.22 606.366 299.75C607.397 298.29 608.556 296.93 609.866 295.68C611.166 294.42 612.616 293.28 614.207 292.23C615.797 291.18 617.517 290.25 619.337 289.46C621.177 288.66 623.126 288 625.197 287.47C627.277 286.94 629.476 286.55 631.786 286.28C634.106 286.02 636.546 285.88 639.106 285.89C641.706 285.89 644.217 286.02 646.647 286.28C649.077 286.55 651.416 286.94 653.666 287.47C655.926 288 658.096 288.66 660.166 289.46C662.246 290.25 664.226 291.18 666.116 292.24C668.017 293.28 669.837 294.43 671.566 295.68C673.286 296.93 674.926 298.29 676.476 299.75C678.016 301.22 679.467 302.79 680.827 304.46C682.186 306.14 683.447 307.92 684.606 309.8C685.166 309.8 685.723 309.8 686.277 309.8C687.147 307.98 688.146 306.25 689.286 304.61C690.416 302.98 691.686 301.43 693.106 299.99C694.516 298.54 696.077 297.18 697.767 295.92C699.467 294.66 701.306 293.49 703.296 292.42C705.286 291.33 707.407 290.38 709.647 289.56C711.887 288.74 714.257 288.06 716.757 287.52C719.267 286.97 721.906 286.57 724.676 286.29C727.457 286.02 730.366 285.89 733.416 285.89C737.246 285.89 740.947 286.13 744.517 286.63C748.116 287.12 751.576 287.86 754.916 288.85C758.266 289.84 761.476 291.08 764.536 292.56C767.596 294.05 770.496 295.78 773.226 297.76C775.916 299.72 778.286 301.95 780.316 304.46C782.316 306.97 783.976 309.76 785.296 312.82C785.947 314.35 786.527 315.94 787.017 317.61C787.496 319.28 787.906 321.01 788.226 322.81C788.546 324.62 788.797 326.49 788.957 328.43C789.116 330.37 789.197 332.38 789.207 334.45C789.207 336.423 789.203 338.393 789.197 340.36C789.19 342.333 789.183 344.303 789.176 346.27C789.163 348.243 789.147 350.213 789.126 352.18C789.1 354.153 789.073 356.123 789.046 358.09C789.007 360.063 788.963 362.033 788.916 364C788.856 365.967 788.787 367.937 788.707 369.91C788.607 371.877 788.487 373.847 788.347 375.82C788.153 377.787 787.92 379.757 787.647 381.73C787.3 383.697 786.91 385.667 786.476 387.64C785.983 389.607 785.466 391.577 784.926 393.55C784.366 395.517 783.793 397.487 783.207 399.46C782.613 401.427 782.016 403.397 781.416 405.37C780.81 407.337 780.2 409.307 779.587 411.28C778.973 413.247 778.363 415.217 777.757 417.19C777.15 419.157 776.546 421.127 775.947 423.1C775.353 425.067 774.77 427.033 774.197 429C772.223 429 770.263 429 768.316 429C766.39 429 764.466 429 762.546 429C760.64 429 758.737 429 756.837 429C754.943 429 753.053 429 751.166 429C751.52 427.033 751.88 425.067 752.246 423.1C752.633 421.127 753.02 419.157 753.407 417.19C753.807 415.217 754.206 413.247 754.606 411.28C755.013 409.307 755.416 407.337 755.816 405.37C756.21 403.397 756.6 401.427 756.986 399.46C757.36 397.487 757.727 395.517 758.087 393.55C758.427 391.577 758.757 389.607 759.077 387.64C759.376 385.667 759.666 383.697 759.947 381.73C760.2 379.757 760.44 377.787 760.666 375.82C760.866 373.847 761.056 371.877 761.236 369.91C761.396 367.937 761.543 365.967 761.676 364C761.796 362.033 761.907 360.063 762.007 358.09C762.093 356.123 762.17 354.153 762.236 352.18C762.29 350.213 762.337 348.243 762.376 346.27C762.41 344.303 762.433 342.333 762.447 340.36C762.46 338.393 762.463 336.423 762.457 334.45C762.436 331.85 762.196 329.43 761.726 327.19C761.246 324.96 760.536 322.91 759.606 321.04C758.666 319.18 757.517 317.51 756.137 316.02C754.757 314.53 753.157 313.22 751.347 312.1C749.537 310.98 747.667 310 745.717 309.16C743.777 308.33 741.757 307.63 739.686 307.07C737.616 306.51 735.486 306.09 733.286 305.81C731.106 305.53 728.856 305.39 726.546 305.39C723.596 305.39 720.837 305.57 718.267 305.95C715.707 306.32 713.327 306.89 711.137 307.64C708.957 308.39 706.957 309.33 705.137 310.46C703.316 311.58 701.686 312.89 700.226 314.39C698.766 315.88 697.517 317.47 696.457 319.16C695.397 320.84 694.536 322.63 693.876 324.51C693.217 326.4 692.737 328.38 692.467 330.47C692.177 332.55 692.076 334.74 692.166 337.02C692.233 338.94 692.296 340.857 692.356 342.77C692.403 344.69 692.443 346.607 692.476 348.52C692.51 350.44 692.533 352.357 692.546 354.27C692.56 356.19 692.566 358.107 692.566 360.02C692.553 361.933 692.537 363.85 692.517 365.77C692.49 367.683 692.46 369.6 692.426 371.52C692.387 373.433 692.34 375.35 692.286 377.27C692.226 379.183 692.163 381.097 692.097 383.01C692.03 384.93 691.957 386.847 691.876 388.76C691.79 390.68 691.703 392.597 691.616 394.51C691.517 396.43 691.416 398.347 691.316 400.26C691.217 402.18 691.11 404.097 690.996 406.01C690.89 407.923 690.777 409.84 690.657 411.76C690.543 413.673 690.426 415.59 690.306 417.51C690.186 419.423 690.063 421.34 689.936 423.26C689.816 425.173 689.693 427.087 689.566 429C687.693 429 685.82 429 683.947 429C682.08 429 680.21 429 678.337 429C676.463 429 674.593 429 672.726 429C670.86 429 668.993 429 667.126 429C667.22 426.987 667.31 424.973 667.397 422.96C667.49 420.94 667.58 418.923 667.666 416.91C667.746 414.897 667.823 412.88 667.897 410.86C667.97 408.847 668.043 406.83 668.116 404.81C668.176 402.797 668.236 400.783 668.296 398.77C668.35 396.75 668.4 394.733 668.447 392.72C668.493 390.707 668.533 388.69 668.566 386.67C668.593 384.657 668.62 382.64 668.647 380.62C668.66 378.607 668.67 376.593 668.676 374.58C668.676 372.56 668.67 370.543 668.657 368.53C668.643 366.517 668.623 364.5 668.597 362.48C668.557 360.467 668.516 358.45 668.476 356.43C668.423 354.417 668.363 352.403 668.296 350.39C668.23 348.37 668.153 346.353 668.066 344.34C667.973 342.327 667.876 340.31 667.777 338.29C667.663 336.277 667.546 334.26 667.426 332.24C667.296 330.24 666.976 328.33 666.486 326.51C665.996 324.7 665.316 322.99 664.467 321.37C663.607 319.75 662.576 318.23 661.356 316.81C660.146 315.39 658.757 314.06 657.186 312.83C655.626 311.59 653.967 310.51 652.217 309.57C650.467 308.64 648.626 307.87 646.707 307.25C644.787 306.63 642.787 306.16 640.707 305.85C638.626 305.54 636.466 305.38 634.226 305.38C631.156 305.38 628.257 305.76 625.507 306.51C622.767 307.26 620.186 308.39 617.777 309.89C615.397 311.39 613.306 313.19 611.507 315.27C609.697 317.36 608.176 319.73 606.916 322.4C605.686 325.04 604.847 327.88 604.407 330.93C603.947 333.98 603.866 337.24 604.176 340.7C604.323 342.54 604.47 344.38 604.616 346.22C604.75 348.06 604.88 349.9 605.007 351.74C605.126 353.58 605.24 355.42 605.347 357.26C605.453 359.1 605.553 360.94 605.647 362.78C605.733 364.62 605.82 366.46 605.907 368.3C605.98 370.14 606.05 371.98 606.116 373.82C606.176 375.66 606.233 377.5 606.286 379.34C606.34 381.18 606.387 383.017 606.426 384.85C606.466 386.69 606.503 388.53 606.536 390.37C606.563 392.21 606.586 394.05 606.606 395.89C606.62 397.73 606.633 399.57 606.647 401.41C606.647 403.25 606.647 405.09 606.647 406.93C606.647 408.77 606.64 410.61 606.626 412.45C606.613 414.29 606.597 416.13 606.577 417.97C606.556 419.81 606.53 421.65 606.496 423.49C606.463 425.33 606.426 427.167 606.387 429C604.553 429 602.723 429 600.897 429C599.07 429 597.24 429 595.407 429C593.58 429 591.75 429 589.916 429C588.083 429 586.247 429 584.407 429Z" fill="black"/>
<path d="M550.457 371.24C550.41 369.5 550.356 367.76 550.296 366.02C550.236 364.28 550.173 362.54 550.106 360.8C550.033 359.06 549.953 357.32 549.866 355.58C549.78 353.84 549.69 352.1 549.597 350.36C549.497 348.62 549.39 346.88 549.277 345.14C549.163 343.4 549.043 341.66 548.916 339.92C548.783 338.18 548.65 336.44 548.517 334.7C548.363 332.96 548.21 331.22 548.056 329.48C547.89 327.74 547.72 326 547.546 324.26C547.366 322.52 547.183 320.78 546.996 319.04C546.796 317.3 546.593 315.56 546.387 313.82C546.167 312.08 545.943 310.34 545.717 308.6C545.477 306.86 545.233 305.12 544.986 303.38C544.733 301.64 544.473 299.9 544.207 298.16C543.926 296.42 543.643 294.68 543.356 292.94C543.063 291.2 542.76 289.46 542.447 287.72C544.14 287.72 545.836 287.72 547.536 287.72C549.25 287.72 550.97 287.72 552.697 287.72C554.43 287.72 556.17 287.72 557.916 287.72C559.683 287.72 561.453 287.72 563.226 287.72C563.8 290.667 564.357 293.61 564.897 296.55C565.41 299.497 565.903 302.44 566.376 305.38C566.823 308.327 567.253 311.27 567.666 314.21C568.06 317.157 568.433 320.1 568.786 323.04C569.12 325.987 569.443 328.93 569.757 331.87C570.037 334.817 570.306 337.76 570.566 340.7C570.8 343.647 571.023 346.59 571.236 349.53C571.43 352.477 571.613 355.42 571.786 358.36C571.94 361.307 572.083 364.25 572.217 367.19C572.337 370.137 572.447 373.08 572.546 376.02C572.633 378.967 572.713 381.91 572.786 384.85C572.84 387.797 572.89 390.74 572.936 393.68C572.97 396.627 572.996 399.57 573.017 402.51C573.023 405.457 573.027 408.4 573.027 411.34C573.02 414.287 573.01 417.23 572.996 420.17C572.97 423.117 572.94 426.06 572.907 429C571.04 429 569.17 429 567.296 429C565.41 429 563.523 429 561.637 429C559.743 429 557.847 429 555.947 429C554.053 429 552.157 429 550.257 429C550.316 427.007 550.373 425.013 550.426 423.02C550.473 421.027 550.52 419.033 550.566 417.04C550.6 415.047 550.633 413.053 550.666 411.06C550.693 409.067 550.716 407.073 550.736 405.08C550.236 405.08 549.73 405.08 549.217 405.08C548.347 406.88 547.346 408.61 546.236 410.27C545.106 411.93 543.856 413.52 542.486 415.05C541.106 416.57 539.606 418.03 537.976 419.42C536.346 420.81 534.587 422.14 532.707 423.39C530.827 424.63 528.816 425.72 526.697 426.65C524.566 427.58 522.327 428.35 519.967 428.97C517.607 429.59 515.137 430.06 512.546 430.37C509.956 430.68 507.267 430.83 504.457 430.83C502.127 430.83 499.876 430.71 497.697 430.47C495.526 430.23 493.426 429.87 491.396 429.39C489.376 428.9 487.436 428.3 485.566 427.58C483.697 426.85 481.906 426.01 480.197 425.04C478.496 424.06 476.897 422.96 475.417 421.74C473.936 420.51 472.566 419.16 471.306 417.69C470.046 416.22 468.896 414.62 467.866 412.9C466.826 411.19 465.906 409.35 465.096 407.38C464.276 405.41 463.607 403.3 463.066 401.07C462.536 398.83 462.137 396.47 461.876 393.98C461.616 391.49 461.487 388.87 461.477 386.12C461.477 383.38 461.596 380.5 461.846 377.49C461.993 375.623 462.136 373.753 462.276 371.88C462.417 370.013 462.553 368.143 462.686 366.27C462.813 364.403 462.94 362.533 463.066 360.66C463.18 358.793 463.293 356.923 463.406 355.05C463.513 353.183 463.616 351.313 463.716 349.44C463.816 347.573 463.91 345.703 463.996 343.83C464.083 341.963 464.167 340.093 464.246 338.22C464.32 336.353 464.39 334.483 464.457 332.61C464.517 330.743 464.577 328.873 464.637 327C464.69 325.133 464.74 323.263 464.786 321.39C464.827 319.523 464.863 317.653 464.896 315.78C464.93 313.907 464.96 312.037 464.987 310.17C465.007 308.297 465.027 306.427 465.047 304.56C465.053 302.687 465.063 300.817 465.077 298.95C465.077 297.077 465.077 295.207 465.077 293.34C465.07 291.467 465.063 289.593 465.056 287.72C466.563 287.72 468.073 287.72 469.586 287.72C471.1 287.72 472.617 287.72 474.137 287.72C475.65 287.72 477.17 287.72 478.697 287.72C480.216 287.72 481.743 287.72 483.276 287.72C483.363 289.56 483.447 291.4 483.526 293.24C483.6 295.08 483.673 296.92 483.746 298.76C483.813 300.6 483.88 302.44 483.947 304.28C484 306.12 484.053 307.96 484.107 309.8C484.153 311.64 484.197 313.48 484.237 315.32C484.27 317.16 484.3 319 484.327 320.84C484.353 322.68 484.373 324.52 484.387 326.36C484.4 328.2 484.41 330.037 484.417 331.87C484.417 333.71 484.413 335.55 484.406 337.39C484.393 339.23 484.376 341.07 484.357 342.91C484.33 344.75 484.303 346.59 484.276 348.43C484.236 350.27 484.197 352.11 484.156 353.95C484.103 355.79 484.05 357.63 483.996 359.47C483.936 361.31 483.873 363.15 483.806 364.99C483.74 366.83 483.666 368.67 483.586 370.51C483.507 372.35 483.423 374.187 483.336 376.02C483.206 378.6 483.257 381.04 483.487 383.36C483.717 385.67 484.126 387.86 484.727 389.91C485.327 391.97 486.126 393.89 487.107 395.69C488.087 397.48 489.267 399.14 490.637 400.67C492.036 402.21 493.546 403.55 495.176 404.7C496.806 405.85 498.557 406.8 500.417 407.57C502.286 408.33 504.266 408.91 506.366 409.29C508.466 409.67 510.687 409.86 513.017 409.86C515.806 409.86 518.626 409.52 521.496 408.83C524.346 408.15 527.237 407.11 530.157 405.73C533.097 404.35 535.796 402.61 538.257 400.49C540.707 398.37 542.916 395.89 544.866 393.03C545.846 391.61 546.707 390.09 547.436 388.47C548.166 386.85 548.757 385.13 549.226 383.31C549.696 381.5 550.036 379.58 550.236 377.57C550.447 375.56 550.517 373.45 550.457 371.24Z" fill="black"/>
<path d="M422.086 429C422.546 426.06 423.003 423.117 423.457 420.17C423.91 417.23 424.36 414.287 424.806 411.34C425.253 408.4 425.693 405.457 426.126 402.51C426.56 399.57 426.986 396.627 427.406 393.68C427.827 390.74 428.237 387.797 428.637 384.85C429.036 381.91 429.43 378.967 429.816 376.02C430.19 373.08 430.557 370.137 430.917 367.19C431.27 364.25 431.617 361.307 431.957 358.36C432.29 355.42 432.613 352.477 432.926 349.53C433.233 346.59 433.533 343.647 433.827 340.7C434.113 337.76 434.39 334.817 434.656 331.87C434.917 328.93 435.17 325.987 435.417 323.04C435.656 320.1 435.887 317.157 436.107 314.21C436.32 311.27 436.53 308.327 436.737 305.38C436.93 302.44 437.117 299.497 437.297 296.55C437.477 293.61 437.646 290.667 437.806 287.72C439.293 287.72 440.78 287.72 442.267 287.72C443.753 287.72 445.24 287.72 446.727 287.72C448.22 287.72 449.713 287.72 451.207 287.72C452.7 287.72 454.197 287.72 455.697 287.72C455.643 290.667 455.586 293.61 455.526 296.55C455.46 299.497 455.386 302.44 455.306 305.38C455.213 308.327 455.117 311.27 455.017 314.21C454.903 317.157 454.783 320.1 454.656 323.04C454.523 325.987 454.38 328.93 454.227 331.87C454.066 334.817 453.9 337.76 453.727 340.7C453.533 343.647 453.337 346.59 453.137 349.53C452.923 352.477 452.703 355.42 452.477 358.36C452.237 361.307 451.99 364.25 451.737 367.19C451.477 370.137 451.206 373.08 450.926 376.02C450.64 378.967 450.346 381.91 450.047 384.85C449.74 387.797 449.427 390.74 449.107 393.68C448.78 396.627 448.447 399.57 448.107 402.51C447.76 405.457 447.41 408.4 447.056 411.34C446.697 414.287 446.333 417.23 445.966 420.17C445.593 423.117 445.216 426.06 444.836 429C442.943 429 441.046 429 439.146 429C437.253 429 435.357 429 433.457 429C431.563 429 429.67 429 427.776 429C425.883 429 423.986 429 422.086 429ZM447.586 264.18C445.926 264.18 444.406 263.82 443.007 263.1C441.616 262.38 440.357 261.3 439.237 259.85C438.147 258.41 437.356 256.83 436.866 255.1C436.376 253.37 436.186 251.49 436.286 249.46C436.396 247.44 436.776 245.56 437.426 243.83C438.076 242.1 438.987 240.51 440.167 239.07C441.367 237.63 442.656 236.55 444.026 235.83C445.396 235.11 446.846 234.75 448.406 234.75C449.956 234.75 451.376 235.11 452.686 235.83C454.007 236.55 455.207 237.63 456.297 239.07C457.417 240.51 458.257 242.1 458.827 243.83C459.397 245.56 459.686 247.44 459.686 249.46C459.686 251.49 459.396 253.37 458.806 255.1C458.206 256.83 457.316 258.41 456.116 259.85C454.936 261.3 453.637 262.38 452.216 263.1C450.786 263.82 449.246 264.18 447.586 264.18Z" fill="black"/>
<path d="M340.966 431.94C338.156 431.94 335.486 431.76 332.936 431.39C330.387 431.01 327.966 430.46 325.676 429.71C323.386 428.97 321.237 428.04 319.207 426.92C317.187 425.81 315.297 424.51 313.536 423.02C311.797 421.52 310.207 419.87 308.786 418.06C307.366 416.25 306.107 414.29 305.017 412.17C303.927 410.06 303.007 407.79 302.257 405.36C301.507 402.94 300.917 400.36 300.496 397.63C300.096 394.89 299.876 392.02 299.857 389.03C299.846 386.04 300.026 382.92 300.396 379.68C300.586 378.06 300.827 376.41 301.107 374.72C301.397 373.04 301.736 371.33 302.116 369.58C302.496 367.84 302.936 366.06 303.417 364.25C303.897 362.44 304.426 360.6 304.996 358.73C305.576 356.88 306.177 355.06 306.797 353.26C307.427 351.47 308.087 349.71 308.767 347.97C309.457 346.24 310.156 344.54 310.896 342.87C311.626 341.2 312.386 339.56 313.176 337.95C314.746 334.73 316.406 331.63 318.167 328.66C319.917 325.68 321.757 322.83 323.686 320.1C325.596 317.37 327.566 314.8 329.566 312.38C331.556 309.96 333.586 307.7 335.656 305.59C337.716 303.48 339.816 301.53 341.947 299.73C344.077 297.93 346.236 296.29 348.436 294.8C350.626 293.32 352.816 292.02 355.026 290.91C357.216 289.79 359.417 288.86 361.637 288.12C363.846 287.37 366.076 286.82 368.336 286.44C370.586 286.07 372.866 285.88 375.176 285.88C376.966 285.88 378.646 285.98 380.216 286.17C381.796 286.37 383.257 286.65 384.616 287.04C385.976 287.42 387.237 287.9 388.387 288.48C389.536 289.05 390.586 289.72 391.526 290.48C393.447 291.99 395.107 293.6 396.507 295.32C397.917 297.03 399.066 298.85 399.947 300.78C400.867 302.68 401.686 304.42 402.396 305.98C403.116 307.54 403.727 308.94 404.227 310.16C404.74 310.16 405.253 310.16 405.767 310.16C406.153 307.267 406.533 304.37 406.906 301.47C407.273 298.577 407.637 295.68 407.996 292.78C408.343 289.887 408.686 286.99 409.026 284.09C409.353 281.197 409.676 278.3 409.996 275.4C410.31 272.507 410.62 269.61 410.926 266.71C411.22 263.817 411.51 260.92 411.797 258.02C412.083 255.12 412.363 252.223 412.637 249.33C412.91 246.43 413.183 243.53 413.457 240.63C414.783 240.63 416.113 240.63 417.447 240.63C418.78 240.63 420.11 240.63 421.436 240.63C422.776 240.63 424.113 240.63 425.447 240.63C426.78 240.63 428.117 240.63 429.457 240.63C429.323 242.597 429.19 244.56 429.056 246.52C428.93 248.48 428.8 250.443 428.667 252.41C428.54 254.37 428.41 256.33 428.276 258.29C428.143 260.257 428.01 262.22 427.876 264.18C427.743 266.14 427.61 268.103 427.477 270.07C427.336 272.03 427.193 273.99 427.047 275.95C426.906 277.917 426.76 279.88 426.607 281.84C426.46 283.8 426.306 285.763 426.146 287.73C425.993 289.69 425.833 291.65 425.667 293.61C425.5 295.577 425.333 297.54 425.167 299.5C424.987 301.46 424.806 303.42 424.626 305.38C424.447 307.347 424.263 309.31 424.077 311.27C423.883 313.23 423.687 315.193 423.487 317.16C423.286 319.12 423.083 321.08 422.876 323.04C422.663 325.007 422.447 326.97 422.227 328.93C422.007 330.89 421.783 332.853 421.556 334.82C421.323 336.78 421.09 338.74 420.857 340.7C420.617 342.667 420.373 344.63 420.126 346.59C419.873 348.55 419.62 350.513 419.366 352.48C419.1 354.44 418.833 356.4 418.566 358.36C418.3 360.327 418.026 362.29 417.746 364.25C417.466 366.21 417.183 368.173 416.896 370.14C416.61 372.1 416.316 374.06 416.017 376.02C415.717 377.987 415.416 379.95 415.116 381.91C414.803 383.87 414.49 385.833 414.176 387.8C413.863 389.76 413.543 391.72 413.216 393.68C412.896 395.647 412.57 397.61 412.237 399.57C411.91 401.53 411.577 403.493 411.237 405.46C410.903 407.42 410.566 409.38 410.227 411.34C409.887 413.307 409.543 415.27 409.197 417.23C408.857 419.19 408.513 421.153 408.167 423.12C407.827 425.08 407.483 427.04 407.137 429C405.31 429 403.483 429 401.656 429C399.83 429 398.003 429 396.176 429C394.356 429 392.533 429 390.707 429C388.887 429 387.066 429 385.246 429C385.626 427.193 386.007 425.387 386.387 423.58C386.773 421.767 387.156 419.957 387.536 418.15C387.917 416.337 388.296 414.527 388.676 412.72C389.056 410.913 389.433 409.103 389.806 407.29C388.947 407.29 388.093 407.29 387.246 407.29C386.167 408.58 384.896 410.03 383.406 411.66C381.906 413.28 380.197 415.08 378.276 417.04C376.356 418.97 374.126 420.81 371.607 422.54C369.077 424.27 366.257 425.9 363.156 427.43C361.616 428.19 359.987 428.85 358.286 429.41C356.596 429.97 354.827 430.44 352.977 430.82C351.137 431.19 349.216 431.48 347.216 431.66C345.216 431.85 343.137 431.94 340.966 431.94ZM348.626 412.44C350.706 412.44 352.746 412.3 354.746 412.02C356.757 411.74 358.716 411.31 360.637 410.74C362.566 410.17 364.436 409.47 366.276 408.61C368.106 407.76 369.887 406.77 371.626 405.63C373.357 404.49 375.026 403.23 376.626 401.86C378.216 400.5 379.747 399.02 381.207 397.43C382.657 395.85 384.047 394.15 385.357 392.35C386.667 390.54 387.896 388.63 389.056 386.6C390.216 384.56 391.286 382.45 392.276 380.25C393.257 378.05 394.147 375.78 394.957 373.43C395.757 371.07 396.477 368.64 397.107 366.13C397.737 363.62 398.277 361.03 398.737 358.36C399.187 355.73 399.526 353.17 399.757 350.7C399.996 348.23 400.126 345.84 400.156 343.53C400.176 341.22 400.107 339 399.936 336.85C399.766 334.71 399.496 332.65 399.137 330.67C398.777 328.68 398.326 326.8 397.776 325.03C397.236 323.26 396.607 321.6 395.876 320.05C395.156 318.51 394.336 317.07 393.436 315.75C392.536 314.42 391.546 313.21 390.466 312.1C389.406 310.98 388.237 310 386.987 309.16C385.747 308.32 384.406 307.62 382.977 307.06C381.547 306.5 380.026 306.08 378.406 305.8C376.797 305.52 375.086 305.38 373.276 305.38C371.396 305.38 369.566 305.53 367.786 305.83C365.996 306.12 364.247 306.56 362.547 307.15C360.846 307.74 359.177 308.48 357.547 309.37C355.917 310.25 354.316 311.28 352.757 312.46C351.197 313.63 349.697 314.9 348.227 316.28C346.757 317.65 345.327 319.13 343.947 320.72C342.556 322.31 341.206 324 339.906 325.8C338.596 327.59 337.336 329.5 336.126 331.5C334.917 333.5 333.776 335.55 332.686 337.67C331.596 339.78 330.577 341.96 329.607 344.2C328.647 346.44 327.746 348.74 326.906 351.1C326.066 353.46 325.297 355.88 324.596 358.36C323.887 360.88 323.276 363.33 322.776 365.73C322.276 368.13 321.876 370.47 321.586 372.76C321.296 375.04 321.117 377.27 321.047 379.44C320.977 381.61 321.007 383.72 321.156 385.77C321.327 387.81 321.607 389.75 322.007 391.58C322.417 393.41 322.936 395.14 323.566 396.76C324.216 398.39 324.966 399.91 325.846 401.33C326.727 402.75 327.717 404.06 328.827 405.27C329.967 406.47 331.226 407.52 332.616 408.41C334.007 409.31 335.526 410.05 337.176 410.65C338.826 411.25 340.607 411.7 342.507 412C344.417 412.3 346.456 412.44 348.626 412.44Z" fill="black"/>
<path d="M230.226 431.94C226.986 431.94 223.916 431.76 221.006 431.38C218.096 431 215.356 430.44 212.786 429.69C210.226 428.94 207.826 428 205.606 426.87C203.386 425.75 201.356 424.43 199.496 422.93C197.676 421.41 196.046 419.75 194.606 417.93C193.176 416.11 191.936 414.14 190.886 412.03C189.836 409.91 188.976 407.65 188.296 405.23C187.616 402.82 187.116 400.26 186.786 397.54C186.486 394.82 186.366 391.98 186.426 389.03C186.496 386.08 186.756 383.01 187.206 379.84C187.666 376.67 188.316 373.38 189.166 369.99C189.596 368.29 190.076 366.56 190.606 364.81C191.146 363.05 191.726 361.27 192.366 359.46C193.016 357.66 193.686 355.87 194.396 354.12C195.116 352.36 195.866 350.64 196.656 348.93C198.236 345.53 199.966 342.24 201.836 339.05C203.726 335.86 205.756 332.78 207.926 329.81C210.126 326.83 212.456 323.96 214.936 321.2C217.446 318.43 220.046 315.81 222.716 313.34C225.396 310.87 228.146 308.56 230.966 306.4C233.786 304.24 236.656 302.23 239.576 300.37C242.496 298.52 245.446 296.81 248.426 295.26C251.416 293.7 254.366 292.33 257.296 291.16C260.196 289.99 263.057 289.01 265.887 288.23C268.677 287.45 271.436 286.86 274.156 286.47C276.846 286.08 279.516 285.88 282.146 285.88C283.656 285.88 285.116 285.96 286.536 286.12C287.956 286.27 289.326 286.5 290.666 286.81C291.996 287.11 293.286 287.5 294.546 287.96C295.796 288.42 297.017 288.95 298.207 289.56C299.387 290.18 300.507 290.89 301.556 291.69C302.616 292.5 303.606 293.4 304.526 294.39C305.456 295.39 306.327 296.48 307.126 297.67C307.936 298.86 308.686 300.14 309.376 301.52C310.077 302.89 310.687 304.37 311.207 305.95C311.737 307.54 312.177 309.24 312.517 311.04C312.867 312.85 313.126 314.77 313.296 316.8C313.476 318.83 313.566 320.97 313.556 323.22C313.566 325.48 313.447 327.86 313.197 330.38C312.947 332.89 312.577 335.54 312.077 338.31C311.587 341.09 310.967 343.99 310.207 347.03C309.457 350.06 308.577 353.23 307.566 356.52C306.626 359.587 305.69 362.653 304.757 365.72C302.703 365.72 300.646 365.72 298.586 365.72C296.533 365.72 294.476 365.72 292.416 365.72C290.356 365.72 288.296 365.72 286.236 365.72C284.176 365.72 282.116 365.72 280.056 365.72C277.99 365.72 275.923 365.72 273.856 365.72C271.79 365.72 269.72 365.72 267.646 365.72C265.573 365.72 263.5 365.72 261.426 365.72C259.346 365.72 257.266 365.72 255.186 365.72C253.1 365.72 251.013 365.72 248.926 365.72C246.84 365.72 244.75 365.72 242.656 365.72C240.563 365.72 238.47 365.72 236.376 365.72C234.276 365.72 232.176 365.72 230.076 365.72C227.97 365.72 225.863 365.72 223.756 365.72C221.643 365.72 219.53 365.72 217.416 365.72C215.296 365.72 213.18 365.72 211.066 365.72C208.94 365.72 206.816 365.72 204.696 365.72C205.823 362.593 206.96 359.467 208.106 356.34C209.273 353.213 210.453 350.083 211.646 346.95C213.36 346.95 215.066 346.95 216.766 346.95C218.473 346.95 220.173 346.95 221.866 346.95C223.56 346.95 225.25 346.95 226.936 346.95C228.623 346.95 230.306 346.95 231.986 346.95C233.66 346.95 235.333 346.95 237.006 346.95C238.673 346.95 240.34 346.95 242.006 346.95C243.666 346.95 245.326 346.95 246.986 346.95C248.64 346.95 250.29 346.95 251.936 346.95C253.583 346.95 255.23 346.95 256.876 346.95C258.517 346.95 260.153 346.95 261.786 346.95C263.42 346.95 265.053 346.95 266.686 346.95C268.313 346.95 269.94 346.95 271.566 346.95C273.193 346.95 274.816 346.95 276.436 346.95C278.056 346.95 279.673 346.95 281.286 346.95C282.9 346.95 284.513 346.95 286.126 346.95C287.74 346.95 289.35 346.95 290.957 346.95C291.637 344.96 292.206 343.02 292.676 341.14C293.146 339.25 293.526 337.42 293.796 335.64C294.066 333.87 294.236 332.14 294.306 330.47C294.386 328.8 294.366 327.19 294.236 325.62C294.136 324.06 293.927 322.58 293.637 321.18C293.337 319.78 292.947 318.46 292.457 317.23C291.977 316 291.397 314.84 290.707 313.78C290.036 312.71 289.257 311.72 288.376 310.81C287.526 309.91 286.566 309.12 285.507 308.44C284.457 307.76 283.306 307.19 282.046 306.74C280.786 306.29 279.426 305.95 277.966 305.72C276.496 305.5 274.916 305.38 273.226 305.38C271.356 305.38 269.486 305.52 267.616 305.79C265.736 306.06 263.847 306.46 261.957 307C260.057 307.53 258.146 308.2 256.236 309.01C254.326 309.81 252.406 310.75 250.486 311.82C248.576 312.88 246.716 314.02 244.896 315.24C243.076 316.46 241.296 317.76 239.566 319.14C237.846 320.52 236.166 321.98 234.536 323.52C232.906 325.06 231.336 326.68 229.826 328.38C228.316 330.08 226.896 331.82 225.576 333.58C224.256 335.34 223.026 337.13 221.896 338.96C220.766 340.78 219.726 342.64 218.786 344.52C217.856 346.41 217.016 348.33 216.266 350.27C215.48 352.357 214.696 354.44 213.916 356.52C213.143 358.607 212.376 360.69 211.616 362.77C210.646 365.44 209.826 368.01 209.166 370.47C208.506 372.94 207.996 375.3 207.636 377.56C207.276 379.83 207.056 381.99 206.986 384.04C206.926 386.1 207.006 388.06 207.226 389.91C207.466 391.75 207.836 393.48 208.326 395.1C208.816 396.72 209.436 398.23 210.176 399.63C210.916 401.04 211.786 402.33 212.776 403.52C213.766 404.7 214.876 405.78 216.116 406.74C217.366 407.69 218.716 408.53 220.166 409.24C221.616 409.95 223.176 410.54 224.836 411.02C226.496 411.49 228.266 411.85 230.126 412.09C231.996 412.33 233.966 412.44 236.026 412.44C238.716 412.44 241.336 412.24 243.886 411.85C246.436 411.45 248.916 410.85 251.326 410.05C253.766 409.22 256.117 408.2 258.376 406.97C260.637 405.74 262.796 404.32 264.866 402.69C266.946 401.04 268.906 399.18 270.746 397.13C272.596 395.08 274.316 392.82 275.926 390.37C277.4 390.863 278.873 391.353 280.346 391.84C281.82 392.333 283.296 392.823 284.776 393.31C286.256 393.803 287.736 394.293 289.216 394.78C290.703 395.273 292.186 395.763 293.666 396.25C292.646 398.03 291.546 399.76 290.366 401.43C289.196 403.1 287.957 404.72 286.637 406.28C285.327 407.85 283.936 409.36 282.466 410.82C281.006 412.27 279.476 413.67 277.866 415.02C276.257 416.36 274.606 417.62 272.896 418.8C271.186 419.99 269.416 421.11 267.606 422.15C265.786 423.19 263.917 424.16 261.996 425.06C260.076 425.95 258.096 426.77 256.066 427.52C254.036 428.26 251.976 428.91 249.886 429.46C247.796 430.01 245.676 430.47 243.526 430.84C241.376 431.21 239.186 431.49 236.966 431.67C234.756 431.85 232.506 431.94 230.226 431.94Z" fill="black"/>
<path d="M5.51649 429C5.28982 426.06 5.04649 423.117 4.78649 420.17C4.49982 417.23 4.20982 414.287 3.91649 411.34C3.61649 408.4 3.31982 405.457 3.02649 402.51C2.72649 399.57 2.43315 396.627 2.14649 393.68C1.88649 390.74 1.64315 387.797 1.41649 384.85C1.25649 381.91 1.12649 378.967 1.02649 376.02C0.973152 373.08 0.929819 370.137 0.896486 367.19C0.883152 364.25 0.873152 361.307 0.866486 358.36C0.866486 355.42 0.869819 352.477 0.876486 349.53C0.889819 346.59 0.899819 343.647 0.906486 340.7C0.919819 337.76 0.936486 334.817 0.956486 331.87C0.969819 328.93 0.986486 325.987 1.00649 323.04C1.02649 320.1 1.04982 317.157 1.07649 314.21C1.09649 311.27 1.11982 308.327 1.14649 305.38C1.17315 302.44 1.19982 299.497 1.22649 296.55C1.25315 293.61 1.28315 290.667 1.31649 287.72C3.31649 287.72 5.31982 287.72 7.32649 287.72C9.34649 287.72 11.3698 287.72 13.3965 287.72C15.4298 287.72 17.4698 287.72 19.5165 287.72C21.5698 287.72 23.6232 287.72 25.6765 287.72C25.5898 289.56 25.5032 291.4 25.4165 293.24C25.3365 295.08 25.2565 296.92 25.1765 298.76C25.1032 300.6 25.0298 302.44 24.9565 304.28C24.8832 306.12 24.8132 307.96 24.7465 309.8C25.4398 309.8 26.1365 309.8 26.8365 309.8C27.7465 307.92 28.7965 306.14 29.9765 304.46C31.1665 302.79 32.4965 301.22 33.9565 299.75C35.4265 298.29 37.0365 296.93 38.7765 295.68C40.5265 294.42 42.4165 293.28 44.4465 292.23C46.4865 291.18 48.6265 290.25 50.8665 289.46C53.1165 288.66 55.4565 288 57.8865 287.47C60.3265 286.94 62.8665 286.55 65.4865 286.28C68.1065 286.02 70.8165 285.88 73.6065 285.88C76.4365 285.88 79.1265 286.02 81.6765 286.28C84.2165 286.55 86.6165 286.94 88.8565 287.47C91.0965 288 93.1865 288.66 95.1265 289.46C97.0565 290.25 98.8265 291.18 100.446 292.23C102.086 293.28 103.586 294.42 104.946 295.68C106.296 296.93 107.516 298.29 108.606 299.75C109.686 301.22 110.636 302.79 111.446 304.46C112.256 306.14 112.926 307.92 113.476 309.8C114.03 309.8 114.586 309.8 115.146 309.8C116.616 307.98 118.206 306.25 119.916 304.61C121.636 302.98 123.486 301.43 125.446 299.98C127.426 298.54 129.526 297.18 131.746 295.92C133.976 294.66 136.326 293.49 138.786 292.41C141.266 291.33 143.816 290.38 146.436 289.56C149.066 288.74 151.766 288.06 154.516 287.52C157.276 286.97 160.096 286.57 162.956 286.29C165.826 286.02 168.726 285.88 171.676 285.88C175.346 285.88 178.716 286.13 181.796 286.63C184.846 287.12 187.586 287.86 190.026 288.85C192.436 289.84 194.546 291.08 196.356 292.56C198.136 294.05 199.626 295.78 200.816 297.75C202.016 299.72 202.806 301.95 203.196 304.46C203.596 306.97 203.616 309.76 203.266 312.82C203.096 314.35 202.846 315.94 202.496 317.61C202.156 319.28 201.736 321.01 201.226 322.81C200.726 324.62 200.136 326.49 199.476 328.43C198.816 330.37 198.076 332.38 197.256 334.45C196.49 336.423 195.73 338.393 194.976 340.36C194.23 342.333 193.49 344.303 192.756 346.27C192.036 348.243 191.32 350.213 190.606 352.18C189.9 354.153 189.196 356.123 188.496 358.09C187.81 360.063 187.126 362.033 186.446 364C185.773 365.967 185.1 367.937 184.426 369.91C183.766 371.877 183.106 373.847 182.446 375.82C181.793 377.787 181.143 379.757 180.496 381.73C179.85 383.697 179.206 385.667 178.566 387.64C177.926 389.607 177.29 391.577 176.656 393.55C176.016 395.517 175.383 397.487 174.756 399.46C174.123 401.427 173.493 403.397 172.866 405.37C172.233 407.337 171.603 409.307 170.976 411.28C170.35 413.247 169.723 415.217 169.096 417.19C168.47 419.157 167.846 421.127 167.226 423.1C166.6 425.067 165.98 427.033 165.366 429C163.8 429 162.236 429 160.676 429C159.123 429 157.57 429 156.016 429C154.463 429 152.913 429 151.366 429C149.82 429 148.273 429 146.726 429C147.273 427.033 147.82 425.067 148.366 423.1C148.92 421.127 149.476 419.157 150.036 417.19C150.596 415.217 151.156 413.247 151.716 411.28C152.283 409.307 152.85 407.337 153.416 405.37C153.99 403.397 154.563 401.427 155.136 399.46C155.71 397.487 156.286 395.517 156.866 393.55C157.446 391.577 158.026 389.607 158.606 387.64C159.193 385.667 159.783 383.697 160.376 381.73C160.97 379.757 161.563 377.787 162.156 375.82C162.756 373.847 163.36 371.877 163.966 369.91C164.58 367.937 165.196 365.967 165.816 364C166.436 362.033 167.063 360.063 167.696 358.09C168.336 356.123 168.976 354.153 169.616 352.18C170.27 350.213 170.93 348.243 171.596 346.27C172.263 344.303 172.936 342.333 173.616 340.36C174.31 338.393 175.006 336.423 175.706 334.45C176.656 331.85 177.356 329.43 177.826 327.19C178.296 324.96 178.526 322.91 178.496 321.04C178.476 319.18 178.196 317.51 177.656 316.02C177.116 314.53 176.306 313.22 175.226 312.1C174.146 310.98 172.926 310 171.576 309.16C170.226 308.32 168.736 307.62 167.116 307.06C165.496 306.5 163.736 306.08 161.846 305.8C159.946 305.52 157.926 305.38 155.776 305.38C153.006 305.38 150.326 305.57 147.736 305.95C145.136 306.32 142.646 306.89 140.246 307.64C137.856 308.39 135.576 309.33 133.416 310.46C131.256 311.58 129.216 312.89 127.286 314.39C125.386 315.88 123.656 317.47 122.106 319.16C120.566 320.84 119.206 322.63 118.016 324.51C116.836 326.4 115.836 328.38 114.996 330.47C114.176 332.55 113.516 334.74 113.036 337.02C112.63 338.94 112.226 340.857 111.826 342.77C111.433 344.69 111.043 346.607 110.656 348.52C110.27 350.44 109.886 352.357 109.506 354.27C109.133 356.19 108.76 358.107 108.386 360.02C108.02 361.933 107.653 363.85 107.286 365.77C106.926 367.683 106.566 369.6 106.206 371.52C105.853 373.433 105.496 375.35 105.136 377.27C104.783 379.183 104.43 381.097 104.076 383.01C103.723 384.93 103.373 386.847 103.026 388.76C102.673 390.68 102.32 392.597 101.966 394.51C101.613 396.43 101.26 398.347 100.906 400.26C100.553 402.18 100.196 404.097 99.8365 406.01C99.4831 407.923 99.1265 409.84 98.7665 411.76C98.4065 413.673 98.0432 415.59 97.6765 417.51C97.3098 419.423 96.9432 421.34 96.5765 423.26C96.2031 425.173 95.8298 427.087 95.4565 429C93.8765 429 92.2998 429 90.7265 429C89.1532 429 87.5765 429 85.9965 429C84.4231 429 82.8465 429 81.2665 429C79.6865 429 78.1098 429 76.5365 429C76.8632 426.987 77.1865 424.973 77.5065 422.96C77.8198 420.94 78.1298 418.923 78.4365 416.91C78.7431 414.897 79.0431 412.88 79.3365 410.86C79.6298 408.847 79.9198 406.83 80.2065 404.81C80.4931 402.797 80.7765 400.783 81.0565 398.77C81.3298 396.75 81.6031 394.733 81.8765 392.72C82.1498 390.707 82.4198 388.69 82.6865 386.67C82.9598 384.657 83.2298 382.64 83.4965 380.62C83.7698 378.607 84.0398 376.593 84.3065 374.58C84.5732 372.56 84.8432 370.543 85.1165 368.53C85.3898 366.517 85.6632 364.5 85.9365 362.48C86.2165 360.467 86.4965 358.45 86.7765 356.43C87.0631 354.417 87.3498 352.403 87.6365 350.39C87.9231 348.37 88.2165 346.353 88.5165 344.34C88.8165 342.327 89.1198 340.31 89.4265 338.29C89.7398 336.277 90.0532 334.26 90.3665 332.24C90.6865 330.24 90.8165 328.33 90.7565 326.51C90.6965 324.7 90.4465 322.99 89.9965 321.37C89.5365 319.75 88.8765 318.23 88.0165 316.81C87.1465 315.39 86.0765 314.06 84.7965 312.83C83.5165 311.59 82.0865 310.51 80.5265 309.57C78.9565 308.64 77.2465 307.87 75.3965 307.25C73.5465 306.63 71.5565 306.16 69.4365 305.85C67.3165 305.54 65.0565 305.38 62.6765 305.38C59.4065 305.38 56.2165 305.76 53.0965 306.51C49.9965 307.26 46.9765 308.39 44.0565 309.89C41.1865 311.39 38.5865 313.19 36.2465 315.27C33.9265 317.36 31.8665 319.73 30.0765 322.4C28.3365 325.04 27.0165 327.88 26.1065 330.93C25.2165 333.98 24.7265 337.24 24.6465 340.7C24.5998 342.54 24.5598 344.38 24.5265 346.22C24.4865 348.06 24.4532 349.9 24.4265 351.74C24.3998 353.58 24.3732 355.42 24.3465 357.26C24.3265 359.1 24.3098 360.94 24.2965 362.78C24.2832 364.62 24.2732 366.46 24.2665 368.3C24.2665 370.14 24.2698 371.98 24.2765 373.82C24.2898 375.66 24.3065 377.5 24.3265 379.34C24.3465 381.18 24.3732 383.017 24.4065 384.85C24.4398 386.69 24.4765 388.53 24.5165 390.37C24.5565 392.21 24.5998 394.05 24.6465 395.89C24.6932 397.73 24.7398 399.57 24.7865 401.41C24.8265 403.25 24.8665 405.09 24.9065 406.93C24.9398 408.77 24.9698 410.61 24.9965 412.45C25.0165 414.29 25.0298 416.13 25.0365 417.97C25.0298 419.81 25.0165 421.65 24.9965 423.49C24.9565 425.33 24.9065 427.167 24.8465 429C23.2665 429 21.6832 429 20.0965 429C18.5098 429 16.9165 429 15.3165 429C13.7098 429 12.0932 429 10.4665 429C8.83315 429 7.18315 429 5.51649 429Z" fill="black"/>
</svg>
