<svg width="113" height="124" viewBox="0 0 113 124" fill="none" xmlns="http://www.w3.org/2000/svg">
<path d="M53.5257 2.92322C53.8359 -0.719105 59.1641 -0.719122 59.4743 2.9232L63.1791 46.4238C63.3533 48.469 65.4918 49.7323 67.3671 48.8977L108.078 30.7798C111.446 29.2812 114.007 34.0205 110.908 36.0164L74.4659 59.4905C72.6411 60.6659 72.6411 63.3341 74.4659 64.5095L110.908 87.9836C114.007 89.9795 111.446 94.7188 108.078 93.2202L67.3671 75.1023C65.4918 74.2677 63.3533 75.531 63.1791 77.5761L59.4743 121.077C59.1641 124.719 53.8359 124.719 53.5257 121.077L49.8209 77.5761C49.6468 75.531 47.5082 74.2677 45.633 75.1023L4.92175 93.2202C1.55446 94.7188 -1.00694 89.9794 2.09158 87.9836L38.5341 64.5095C40.3589 63.3341 40.3589 60.6659 38.5341 59.4905L2.09157 36.0164C-1.00694 34.0205 1.55445 29.2812 4.92174 30.7798L45.633 48.8977C47.5082 49.7323 49.6468 48.469 49.8209 46.4238L53.5257 2.92322Z" fill="black"/>
</svg>
